#N canvas 1 1 1900 946 12;
#X obj 100 40 netreceive -u -b 9000;
#X obj 117 110 oscparse;
#X obj 102 164 list trim;
#X obj 64 462 mtof;
#X msg 80 521 \$1 5;
#X obj 72 586 line~;
#X obj 1082 150 * 20;
#X obj 964 154 osc~ 6;
#X obj 1042 230 *~;
#X obj 64 642 +~;
#X obj 77 708 phasor~;
#X obj 96 1362 vcf~;
#X obj 745 584 * 5000;
#X obj 738 642 + 100;
#X msg 622 714 \$1 15;
#X obj 751 838 line~;
#X obj 931 601 * 10;
#X obj 938 642 + 1;
#X obj 998 508 t f f;
#X obj 1466 966 pack 0 0;
#X obj 1400 518 moses 0.01;
#X obj 1404 586 b;
#X obj 1572 566 b;
#X obj 1566 484 * 3000;
#X obj 2344 522 * 3000;
#X obj 1704 562 f 50;
#X obj 1460 642 f 500;
#X obj 1282 986 line~;
#X obj 35 1439 *~;
#X msg 2230 1163 \$1 15;
#X obj 2228 1212 line~;
#X obj 2032 1102 expr 1 - $f1;
#X msg 2033 1156 \$1 15;
#X obj 2028 1212 line~;
#X obj 48 1570 *~;
#X obj 64 1038 *~;
#X obj 42 1788 dac~;
#X obj 286 1444 delwrite~ verb 1000;
#X obj 1346 1506 delread~ verb 400;
#X obj 1036 734 line~;
#X msg 1038 670 \$1 15;
#X obj 960 1380 *~;
#X obj 304 938 *~;
#X msg 718 202 \$1 15;
#X obj 714 268 line~;
#X obj 2384 1728 delwrite~ cho 50;
#X obj 2438 1316 osc~ 0.5;
#X obj 2438 1376 *~ 5;
#X obj 2438 1436 +~ 15;
#X obj 2468 1570 vd~ cho;
#X obj 1264 1058 *~;
#X msg 2058 392 \$1 15;
#X obj 2432 934 line~;
#X obj 1220 1202 +~;
#X obj 742 32 route pitch note volume cutoff res vib pan reverb attack release chorus sustain waveform delay dist;
#X obj 2962 334 * 3;
#X obj 2954 426 pack f 50;
#X obj 2952 516 line~;
#X obj 64 762 cos~;
#X obj 278 750 -~ 0.5;
#X obj 271 827 abs~;
#X obj 295 883 *~ 4;
#X obj 287 999 -~ 1;
#X obj 738 642 *~ -2;
#X obj 724 700 +~ 1;
#X obj 2546 578 expr~ max(0 \, 1 - abs($v1));
#X obj 2976 658 expr~ max(0 \, 1 - abs($v1 - 1));
#X obj 2992 586 expr~ max(0 \, 1 - abs($v1 - 2));
#X obj 2943 716 expr~ max(0 \, 1 - abs($v1 - 3));
#X obj 93 888 *~;
#X obj 274 1062 *~;
#X obj 732 898 *~;
#X obj 838 918 *~;
#X obj 69 980 +~;
#X obj 442 1192 +~;
#X obj 78 1167 +~;
#X obj 86 222 route left right global;
#X obj 801 1037 expr~ if($v1 < 0.5 \, 1 \, -1);
#X obj 1395 550 spigot;
#X obj 1336 449 == 0;
#X obj 124 937 *~;
#X obj 1100 144 * 20;
#X obj 1149 185 + 1;
#X msg 1145 231 \$1 15;
#X obj 388 621 line~;
#X obj 159 974 clip~ -0.8 0.8;
#X obj 217 1003 *~ 0.5;
#X obj 455 230 * 1000;
#X obj 428 341 line~;
#X obj 405 1404 delwrite~ echo 2000;
#X obj 293 1251 vd~ echo;
#X msg 487 292 \$1 15;
#X obj 471 848 *~ 0.6;
#X connect 0 0 1 0;
#X connect 1 0 2 0;
#X connect 2 0 76 0;
#X connect 3 0 4 0;
#X connect 4 0 5 0;
#X connect 5 0 9 0;
#X connect 6 0 8 1;
#X connect 7 0 8 0;
#X connect 8 0 9 1;
#X connect 9 0 10 0;
#X connect 10 0 58 0;
#X connect 10 0 59 0;
#X connect 10 0 63 0;
#X connect 10 0 77 0;
#X connect 11 0 80 0;
#X connect 12 0 13 0;
#X connect 13 0 14 0;
#X connect 14 0 15 0;
#X connect 15 0 11 1;
#X connect 16 0 17 0;
#X connect 17 0 11 2;
#X connect 18 0 19 0;
#X connect 18 1 20 0;
#X connect 19 0 27 0;
#X connect 20 0 78 0;
#X connect 20 1 22 0;
#X connect 21 0 26 0;
#X connect 22 0 25 0;
#X connect 23 0 25 1;
#X connect 24 0 26 1;
#X connect 25 0 19 1;
#X connect 26 0 19 1;
#X connect 27 0 28 1;
#X connect 28 0 34 0;
#X connect 28 0 35 0;
#X connect 28 0 37 0;
#X connect 28 0 45 0;
#X connect 28 0 89 0;
#X connect 29 0 30 0;
#X connect 30 0 35 1;
#X connect 31 0 32 0;
#X connect 32 0 33 0;
#X connect 33 0 34 1;
#X connect 34 0 36 0;
#X connect 35 0 36 1;
#X connect 38 0 41 0;
#X connect 39 0 41 1;
#X connect 40 0 39 0;
#X connect 41 0 36 0;
#X connect 41 0 36 1;
#X connect 42 0 53 0;
#X connect 43 0 44 0;
#X connect 44 0 42 1;
#X connect 46 0 47 0;
#X connect 47 0 48 0;
#X connect 48 0 49 0;
#X connect 49 0 50 0;
#X connect 50 0 36 0;
#X connect 50 0 36 1;
#X connect 51 0 52 0;
#X connect 52 0 50 1;
#X connect 53 0 28 0;
#X connect 54 0 3 0;
#X connect 54 1 18 0;
#X connect 54 2 43 0;
#X connect 54 3 12 0;
#X connect 54 4 16 0;
#X connect 54 5 6 0;
#X connect 54 6 29 0;
#X connect 54 6 31 0;
#X connect 54 7 40 0;
#X connect 54 8 23 0;
#X connect 54 9 24 0;
#X connect 54 10 51 0;
#X connect 54 11 79 0;
#X connect 54 12 55 0;
#X connect 54 13 87 0;
#X connect 54 14 81 0;
#X connect 55 0 56 0;
#X connect 56 0 57 0;
#X connect 57 0 65 0;
#X connect 57 0 66 0;
#X connect 57 0 67 0;
#X connect 57 0 68 0;
#X connect 58 0 69 0;
#X connect 59 0 60 0;
#X connect 60 0 61 0;
#X connect 61 0 62 0;
#X connect 62 0 70 0;
#X connect 63 0 64 0;
#X connect 64 0 71 0;
#X connect 65 0 69 1;
#X connect 66 0 70 1;
#X connect 67 0 71 1;
#X connect 68 0 72 1;
#X connect 69 0 73 0;
#X connect 70 0 73 1;
#X connect 71 0 74 1;
#X connect 72 0 75 1;
#X connect 73 0 74 0;
#X connect 74 0 75 0;
#X connect 75 0 11 0;
#X connect 76 0 54 0;
#X connect 76 1 54 0;
#X connect 76 2 54 0;
#X connect 77 0 72 0;
#X connect 78 0 21 0;
#X connect 79 0 78 1;
#X connect 80 0 85 0;
#X connect 81 0 82 0;
#X connect 82 0 83 0;
#X connect 83 0 84 0;
#X connect 84 0 80 1;
#X connect 85 0 86 0;
#X connect 86 0 42 0;
#X connect 87 0 88 0;
#X connect 88 0 90 0;
#X connect 90 0 92 0;
#X connect 92 0 36 0;
#X connect 92 0 36 1;
