#N canvas 100 100 900 700 12;
#X obj 50 20 netreceive -u -b 9000;
#X obj 50 50 oscparse;
#X obj 50 80 list trim;
#X obj 50 110 route left right;
#X obj 189 86 route pitch note volume mod expr cutoff res vib pan reverb attack release chorus sustain portamento;
#X obj 50 180 mtof;
#X msg 50 210 \$1 5;
#X obj 50 240 line~;
#X obj 150 180 * 20;
#X obj 200 180 osc~ 6;
#X obj 200 210 *~;
#X obj 50 280 +~;
#X obj 50 310 phasor~;
#X obj 50 450 vcf~;
#X obj 200 300 * 5000;
#X obj 200 330 + 100;
#X msg 200 360 \$1 15;
#X obj 200 390 line~;
#X obj 300 300 * 10;
#X obj 300 330 + 1;
#X obj 400 180 t f f;
#X obj 400 330 pack 0 0;
#X obj 450 210 moses 0.01;
#X obj 450 240 b;
#X obj 500 240 b;
#X obj 600 180 * 3000;
#X obj 700 180 * 3000;
#X obj 500 280 f 50;
#X obj 450 280 f 500;
#X obj 400 360 line~;
#X obj 50 500 *~;
#X msg 750 350 \$1 15;
#X obj 750 380 line~;
#X obj 650 320 expr 1 - $f1;
#X msg 650 350 \$1 15;
#X obj 650 380 line~;
#X obj 50 550 *~;
#X obj 100 550 *~;
#X obj 47 659 dac~;
#X obj 165 586 delwrite~ verb 1000;
#X obj 407 525 delread~ verb 400;
#X obj 534 491 line~;
#X msg 533 451 \$1 15;
#X obj 531 593 *~;
#X obj 139 444 *~;
#X msg 123 338 \$1 15;
#X obj 136 387 line~;
#X obj 687 639 delwrite~ cho 50;
#X obj 714 453 osc~ 0.5;
#X obj 718 494 *~ 5;
#X obj 713 526 +~ 15;
#X obj 729 574 vd~ cho;
#X obj 650 480 *~;
#X msg 819 412 \$1 15;
#X obj 824 456 line~;
#X obj 628 543 +~;
#X connect 0 0 1 0;
#X connect 1 0 2 0;
#X connect 2 0 3 0;
#X connect 3 0 4 0;
#X connect 3 1 4 0;
#X connect 4 0 5 0;
#X connect 4 2 20 0;
#X connect 4 4 45 0;
#X connect 4 5 14 0;
#X connect 4 6 18 0;
#X connect 4 7 8 0;
#X connect 4 8 31 0;
#X connect 4 8 33 0;
#X connect 4 9 42 0;
#X connect 4 10 25 0;
#X connect 4 11 26 0;
#X connect 4 12 53 0;
#X connect 5 0 6 0;
#X connect 6 0 7 0;
#X connect 7 0 11 0;
#X connect 8 0 10 1;
#X connect 9 0 10 0;
#X connect 10 0 11 1;
#X connect 11 0 12 0;
#X connect 12 0 13 0;
#X connect 13 0 44 0;
#X connect 14 0 15 0;
#X connect 15 0 16 0;
#X connect 16 0 17 0;
#X connect 17 0 13 1;
#X connect 18 0 19 0;
#X connect 19 0 13 2;
#X connect 20 0 21 0;
#X connect 20 1 22 0;
#X connect 21 0 29 0;
#X connect 22 0 23 0;
#X connect 22 1 24 0;
#X connect 23 0 28 0;
#X connect 24 0 27 0;
#X connect 25 0 27 1;
#X connect 26 0 28 1;
#X connect 27 0 21 1;
#X connect 28 0 21 1;
#X connect 29 0 30 1;
#X connect 30 0 36 0;
#X connect 30 0 37 0;
#X connect 31 0 32 0;
#X connect 32 0 37 1;
#X connect 33 0 34 0;
#X connect 34 0 35 0;
#X connect 35 0 36 1;
#X connect 36 0 38 0;
#X connect 36 0 39 0;
#X connect 37 0 38 1;
#X connect 37 0 39 0;
#X connect 40 0 43 0;
#X connect 41 0 43 1;
#X connect 42 0 41 0;
#X connect 43 0 38 0;
#X connect 43 0 38 1;
#X connect 44 0 47 0;
#X connect 44 0 55 0;
#X connect 45 0 46 0;
#X connect 46 0 44 1;
#X connect 48 0 49 0;
#X connect 49 0 50 0;
#X connect 50 0 51 0;
#X connect 51 0 52 0;
#X connect 52 0 55 1;
#X connect 53 0 54 0;
#X connect 54 0 52 1;
#X connect 55 0 30 0;
