#N canvas -1536 419 2400 1236 12;
#X obj 304 100 netreceive -u -b 9000;
#X obj 305 135 oscparse;
#X obj 297 414 line~;
#X obj 297 465 *~ 800;
#X obj 292 517 +~ 200;
#X obj 307 630 osc~;
#X obj 318 720 dac~;
#X obj 443 423 line~;
#X obj 315 680 *~;
#X obj 429 186 print RAW;
#X obj 306 236 route gesture;
#X obj 273 292 route pitch volume;
#X obj 314 190 list trim;
#X msg 297 373 \$1 5;
#X obj 442 366 \$1 5;
#X connect 0 0 1 0;
#X connect 1 0 9 0;
#X connect 1 0 12 0;
#X connect 2 0 3 0;
#X connect 3 0 4 0;
#X connect 4 0 5 0;
#X connect 5 0 8 0;
#X connect 7 0 8 1;
#X connect 8 0 6 0;
#X connect 8 0 6 1;
#X connect 10 0 11 0;
#X connect 11 0 13 0;
#X connect 11 1 14 0;
#X connect 12 0 10 0;
#X connect 13 0 2 0;
#X connect 14 0 7 0;
