#N canvas 0 0 1924 1030 12;
#X obj 304 100 netreceive -u -b 9000;
#X obj 305 135 oscparse;
#X obj 289 580 line~;
#X obj 299 796 osc~;
#X obj 310 886 dac~;
#X obj 435 589 line~;
#X obj 307 846 *~;
#X obj 429 186 print RAW;
#X obj 314 190 list trim;
#X msg 289 539 \$1 5;
#X obj 434 532 \$1 5;
#X obj 306 236 route left right;
#X obj 273 292 route pitch volume mod cutoff res vib;
#X obj 606 296 route pitch volume mod cutoff res vib;
#X obj 256 720 mtof;
#X obj 289 631;
#X obj 277 657;
#X connect 0 0 1 0;
#X connect 1 0 7 0;
#X connect 1 0 8 0;
#X connect 3 0 6 0;
#X connect 5 0 6 1;
#X connect 6 0 4 0;
#X connect 6 0 4 1;
#X connect 8 0 11 0;
#X connect 9 0 2 0;
#X connect 10 0 5 0;
#X connect 11 0 12 0;
#X connect 11 1 13 0;
#X connect 12 0 14 0;
#X connect 12 1 10 0;
#X connect 13 0 14 0;
#X connect 13 1 10 0;
#X connect 14 0 3 0;
#X connect 15 0 16 0;
